<svg width="24" height="24" viewBox="0 0 24 24" fill="none" xmlns="http://www.w3.org/2000/svg">
<path d="M12.5958 14.2834L11.8917 14.9934L12.5958 14.2834ZM14.6053 15.599L15.3094 16.309H15.3094L14.6053 15.599ZM18.275 19.9565L18.3957 20.9492L18.275 19.9565ZM16.2765 14.2543L15.9756 13.3006L16.2765 14.2543ZM19.1634 15.6514L18.4431 16.3451C18.4467 16.3488 18.4504 16.3525 18.454 16.3562L19.1634 15.6514ZM17.5236 14.2687L17.8463 13.3222L17.5236 14.2687ZM10.9266 12.9401L11.2278 11.9866H11.2278L10.9266 12.9401ZM8.04068 14.3326L8.7434 15.0441C8.74901 15.0386 8.75455 15.033 8.76002 15.0273L8.04068 14.3326ZM9.68048 12.9536L10.0023 13.9004H10.0023L9.68048 12.9536ZM5.09202 19.782L5.54601 18.891H5.54601L5.09202 19.782ZM4.21799 18.908L5.10899 18.454L5.10899 18.454L4.21799 18.908ZM19.782 18.908L18.891 18.454L19.782 18.908ZM18.908 19.782L18.454 18.891L18.908 19.782ZM5.09202 4.21799L5.54601 5.10899L5.54601 5.10899L5.09202 4.21799ZM4.21799 5.09202L5.10899 5.54601V5.54601L4.21799 5.09202ZM4.04409 18.2801L3.05159 18.4024L4.04409 18.2801ZM18.908 4.21799L18.454 5.10899L18.454 5.10899L18.908 4.21799ZM19.782 5.09202L18.891 5.54601V5.54601L19.782 5.09202ZM11.8917 14.9934L13.5597 16.6476L14.968 15.2274L13.3 13.5733L11.8917 14.9934ZM14.968 16.6476L15.3094 16.309L13.9011 14.8889L13.5597 15.2274L14.968 16.6476ZM13.5561 16.6439L17.5671 20.6629L18.9828 19.2501L14.9717 15.2311L13.5561 16.6439ZM15.3094 16.309C15.7242 15.8977 15.9928 15.6324 16.2133 15.447C16.425 15.269 16.5242 15.2247 16.5773 15.208L15.9756 13.3006C15.5663 13.4298 15.233 13.6582 14.9261 13.9163C14.6281 14.1669 14.2923 14.501 13.9011 14.8889L15.3094 16.309ZM19.8837 14.9577C19.5016 14.5609 19.1736 14.2192 18.8814 13.9618C18.5805 13.6967 18.2525 13.4606 17.8463 13.3222L17.2009 15.2152C17.2535 15.2331 17.3518 15.2797 17.5593 15.4625C17.7755 15.6529 18.0379 15.9243 18.4431 16.3451L19.8837 14.9577ZM16.5773 15.208C16.7806 15.1439 16.9991 15.1464 17.2009 15.2152L17.8463 13.3222C17.241 13.1158 16.5855 13.1082 15.9756 13.3006L16.5773 15.208ZM13.3 13.5733C12.9093 13.1859 12.5739 12.8522 12.2762 12.6018C11.9696 12.344 11.6366 12.1157 11.2278 11.9866L10.6253 13.8937C10.6784 13.9104 10.7775 13.9547 10.9889 14.1324C11.2091 14.3177 11.4774 14.5826 11.8917 14.9934L13.3 13.5733ZM8.76002 15.0273C9.16529 14.6076 9.42779 14.3369 9.64396 14.147C9.85143 13.9647 9.9496 13.9183 10.0023 13.9004L9.35868 12.0068C8.95276 12.1448 8.62476 12.3802 8.32385 12.6446C8.03164 12.9013 7.70353 13.2422 7.32134 13.638L8.76002 15.0273ZM11.2278 11.9866C10.6185 11.7941 9.96367 11.8012 9.35868 12.0068L10.0023 13.9004C10.2039 13.8319 10.4222 13.8295 10.6253 13.8937L11.2278 11.9866ZM16.8 19H7.2V21H16.8V19ZM5 16.8V7.2H3V16.8H5ZM7.2 19C6.62345 19 6.25117 18.9992 5.96784 18.9761C5.69617 18.9539 5.59545 18.9162 5.54601 18.891L4.63803 20.673C5.01641 20.8658 5.40963 20.9371 5.80497 20.9694C6.18864 21.0008 6.65645 21 7.2 21V19ZM5.54601 18.891C5.35785 18.7951 5.20487 18.6422 5.10899 18.454L3.32698 19.362C3.6146 19.9265 4.07354 20.3854 4.63803 20.673L5.54601 18.891ZM19 16.8C19 17.3766 18.9992 17.7488 18.9761 18.0322C18.9539 18.3038 18.9162 18.4045 18.891 18.454L20.673 19.362C20.8658 18.9836 20.9371 18.5904 20.9694 18.195C21.0008 17.8114 21 17.3436 21 16.8H19ZM16.8 21C17.4278 21 17.9636 21.0018 18.3957 20.9492L18.1542 18.9639C17.8715 18.9982 17.4809 19 16.8 19V21ZM18.3957 20.9492C18.7228 20.9094 19.0469 20.8336 19.362 20.673L18.454 18.891C18.4133 18.9117 18.3358 18.9418 18.1542 18.9639L18.3957 20.9492ZM18.891 18.454C18.7951 18.6422 18.6422 18.7951 18.454 18.891L19.362 20.673C19.9265 20.3854 20.3854 19.9265 20.673 19.362L18.891 18.454ZM7.2 3C6.65645 3 6.18864 2.99922 5.80497 3.03057C5.40963 3.06287 5.01641 3.13419 4.63803 3.32698L5.54601 5.10899C5.59545 5.0838 5.69617 5.04612 5.96784 5.02393C6.25117 5.00078 6.62345 5 7.2 5V3ZM5 7.2C5 6.62345 5.00078 6.25117 5.02393 5.96784C5.04612 5.69617 5.0838 5.59545 5.10899 5.54601L3.32698 4.63803C3.13419 5.01641 3.06287 5.40963 3.03057 5.80497C2.99922 6.18864 3 6.65645 3 7.2H5ZM4.63803 3.32698C4.07354 3.6146 3.6146 4.07354 3.32698 4.63803L5.10899 5.54601C5.20487 5.35785 5.35785 5.20487 5.54601 5.10899L4.63803 3.32698ZM3 16.8C3 17.4306 2.99819 17.9687 3.05159 18.4024L5.0366 18.1579C5.00181 17.8754 5 17.4844 5 16.8H3ZM3.05159 18.4024C3.0916 18.7273 3.16754 19.049 3.32698 19.362L5.10899 18.454C5.08839 18.4136 5.05863 18.3368 5.0366 18.1579L3.05159 18.4024ZM4.74682 18.9916L8.7434 15.0441L7.33796 13.6212L3.34137 17.5687L4.74682 18.9916ZM19 16.4934V16.8H21V16.4934H19ZM18.454 16.3562L19.2906 17.1982L20.7094 15.7887L19.8728 14.9466L18.454 16.3562ZM7.2 5H16.8V3H7.2V5ZM19 7.2V16.4934H21V7.2H19ZM16.8 5C17.3766 5 17.7488 5.00078 18.0322 5.02393C18.3038 5.04612 18.4045 5.0838 18.454 5.10899L19.362 3.32698C18.9836 3.13419 18.5904 3.06287 18.195 3.03057C17.8114 2.99922 17.3435 3 16.8 3V5ZM21 7.2C21 6.65645 21.0008 6.18864 20.9694 5.80497C20.9371 5.40963 20.8658 5.01641 20.673 4.63803L18.891 5.54601C18.9162 5.59545 18.9539 5.69617 18.9761 5.96784C18.9992 6.25117 19 6.62345 19 7.2H21ZM18.454 5.10899C18.6422 5.20487 18.7951 5.35785 18.891 5.54601L20.673 4.63803C20.3854 4.07354 19.9265 3.6146 19.362 3.32698L18.454 5.10899ZM16 8.99989C16 9.55218 15.5523 9.99989 15 9.99989V11.9999C16.6569 11.9999 18 10.6567 18 8.99989H16ZM15 9.99989C14.4477 9.99989 14 9.55218 14 8.99989H12C12 10.6567 13.3431 11.9999 15 11.9999V9.99989ZM14 8.99989C14 8.44761 14.4477 7.99989 15 7.99989V5.99989C13.3431 5.99989 12 7.34304 12 8.99989H14ZM15 7.99989C15.5523 7.99989 16 8.44761 16 8.99989H18C18 7.34304 16.6569 5.99989 15 5.99989V7.99989Z" fill="#131A29"/>
</svg>
